# xmcd
#
# Track frame offsets: 
#        150
#        40893
#        73432
#        100710
#        131476
#        164964
#        194126
#        227475
#        263195
#        292776
#
# Disc length: 4313 seconds
#
# Revision: 2
# Processed by: cddbd v1.5.2PL0 Copyright (c) Steve Scherf et al.
# Submitted via: ExactAudioCopy v0.99pb5
#
DISCID=9810d70a
DTITLE=Various Artist - The Underground Sound Of Madrid 2005 CD1
DYEAR=2005
DGENRE=Electronic
TTITLE0=Ethan - In My Heart (Julian Poker Remix)
TTITLE1=David Lara - Black Rules (Black Vocal Mix)
TTITLE2=4 Elements - Mog Ruith
TTITLE3=Coca and Villa - La Noche (Julian Poker Remix)
TTITLE4=Simon and Shaker - Into The Room
TTITLE5=David Lara - The Beats and The Drums (D-Formation Remix)
TTITLE6=Prompt - Beside Me (Gothek DC Remix)
TTITLE7=Beatfreakers - No Way Out (Julian Poker Remix)
TTITLE8=The Askew - Invisible (Julian Poker Remix)
TTITLE9=Julian Poker pres. Republik - Modern Times
EXTD=
EXTT0=
EXTT1=
EXTT2=
EXTT3=
EXTT4=
EXTT5=
EXTT6=
EXTT7=
EXTT8=
EXTT9=
PLAYORDER=
